<?xml version="1.0" encoding="UTF-8"?>
<svg version="1.1" xmlns="http://www.w3.org/2000/svg" width="512" height="512">
<path d="M0 0 C0.67391785 -0.00277954 1.34783569 -0.00555908 2.04217529 -0.00842285 C11.02740532 -0.02694528 19.50733989 0.71345895 28.3125 2.625 C36.87433875 4.44932511 43.24305344 4.06364724 51.70239258 2.01635742 C81.96428701 -4.89042191 114.35277154 1.96183748 140.40771484 18.2265625 C174.95880898 40.52126028 197.01485993 77.43198791 207.0625 116.75 C207.25368408 117.49693115 207.44486816 118.2438623 207.6418457 119.01342773 C208.22365363 121.45818304 208.72021371 123.90573702 209.1875 126.375 C209.37513916 127.34695312 209.56277832 128.31890625 209.75610352 129.3203125 C211.13904961 137.80743374 211.33667038 146.11875656 211.35546875 154.703125 C211.35967834 155.90695831 211.36388794 157.11079163 211.3682251 158.35110474 C211.38005658 163.38217533 211.38546659 168.41242572 211.34204102 173.44335938 C211.31502571 177.15569327 211.3319582 180.86581149 211.35546875 184.578125 C211.32467476 186.25977753 211.32467476 186.25977753 211.29325867 187.97540283 C211.38368183 195.41028958 213.07144769 199.88132781 217.45967102 205.89373779 C222.88813755 213.68932925 224.0732641 223.15323184 225.1875 232.375 C225.81914062 231.93929687 226.45078125 231.50359375 227.1015625 231.0546875 C242.44892708 220.83785402 258.03626517 215.76689738 276.5 215.9375 C277.67989502 215.94652344 278.85979004 215.95554688 280.07543945 215.96484375 C304.26979709 216.44305218 324.80535824 227.01329847 341.55078125 244.33203125 C355.78040349 260.22776367 362.8168712 280.58477913 362.625 301.75 C362.61364014 303.52153442 362.61364014 303.52153442 362.60205078 305.32885742 C362.43328722 314.28502872 361.4151287 321.95903358 358.1875 330.375 C357.76339844 331.54675781 357.33929688 332.71851563 356.90234375 333.92578125 C348.83845616 354.47858667 333.48336452 370.96398855 313.421875 380.15625 C302.28852446 384.97109801 291.35399191 387.41219998 279.265625 387.94921875 C277.95198975 388.01272522 277.95198975 388.01272522 276.61181641 388.07751465 C274.4705575 388.18048788 272.32905027 388.27827536 270.1875 388.375 C267.84853145 394.54099017 265.53603422 400.71643419 263.24169922 406.89916992 C262.45805612 409.0013777 261.66837457 411.10134476 260.87255859 413.19897461 C259.72981182 416.21419972 258.60900932 419.23681102 257.4921875 422.26171875 C257.13188446 423.19835861 256.77158142 424.13499847 256.40036011 425.10002136 C254.47127584 430.13355454 254.47127584 430.13355454 254.91064453 435.36254883 C255.33200684 436.02665771 255.75336914 436.6907666 256.1875 437.375 C259.10591332 443.37396071 258.81596208 448.94845732 256.82983398 455.16357422 C256.21178372 456.92393406 255.57893353 458.67914774 254.93359375 460.4296875 C254.42579124 461.84207199 254.42579124 461.84207199 253.9077301 463.2829895 C253.1902319 465.26698907 252.46622131 467.24864424 251.73608398 469.22802734 C250.63345434 472.22700552 249.56066393 475.23549523 248.49023438 478.24609375 C239.24466501 503.83537082 239.24466501 503.83537082 226.1875 510.375 C222.03196878 511.96107419 218.5948594 512.62618123 214.15441608 512.63226891 C212.96141559 512.6387178 211.76841509 512.64516669 210.53926307 512.651811 C209.23743007 512.6487138 207.93559706 512.6456166 206.59431458 512.64242554 C205.19041645 512.64616357 203.78652041 512.65076571 202.38262767 512.65615618 C198.52945992 512.66838294 194.67637901 512.6681261 190.82319629 512.66576743 C186.66557471 512.66535918 182.50798093 512.67639933 178.35037231 512.68588257 C170.20602565 512.70249236 162.06170793 512.70799213 153.91734574 512.70910732 C147.29572496 512.71005792 140.67411372 512.71416881 134.05249596 512.72050858 C115.27356511 512.73812186 96.49465712 512.74734745 77.71571795 512.74584763 C76.70343483 512.74576772 75.69115172 512.7456878 74.64819336 512.74560547 C73.12791154 512.74548283 73.12791154 512.74548283 71.57691696 512.74535771 C55.15647972 512.74454505 38.73613427 512.76367741 22.31572358 512.7918822 C5.45003889 512.82062287 -11.41560106 512.83442181 -28.28131086 512.83269465 C-37.74793041 512.8320311 -47.21445378 512.83750792 -56.68105125 512.85905075 C-64.74239781 512.87727823 -72.80360458 512.88159712 -80.86496284 512.8680319 C-84.97573105 512.86150981 -89.08623122 512.86135737 -93.1969738 512.8787384 C-96.96555157 512.89450833 -100.73364967 512.891566 -104.50221602 512.87417014 C-106.50000712 512.86966656 -108.49781332 512.88472686 -110.49554604 512.90064943 C-122.49430884 512.80914352 -131.0013588 510.07217442 -139.65234375 501.66796875 C-147.56246165 493.27151448 -150.39505134 485.15619057 -150.37036133 473.57397461 C-149.02408475 437.53310895 -126.95536952 401.66877664 -103.8125 375.375 C-102.83990234 374.21871094 -102.83990234 374.21871094 -101.84765625 373.0390625 C-97.86302831 368.32256412 -93.52992803 364.34550192 -88.8125 360.375 C-87.37390625 359.10462891 -87.37390625 359.10462891 -85.90625 357.80859375 C-78.33364151 351.16693836 -70.41792876 345.60018538 -61.8125 340.375 C-65.0457044 336.47857418 -68.32511159 332.85821258 -72 329.375 C-82.52803646 318.93543443 -91.19396121 305.61207759 -97.8125 292.375 C-99.9472777 292.02761615 -102.09744515 291.77335306 -104.25 291.5625 C-116.71058319 289.89603903 -125.81516264 283.95532555 -133.6328125 274.07421875 C-135.13511545 271.88870767 -136.49925183 269.67836271 -137.8125 267.375 C-138.37904297 266.42367187 -138.37904297 266.42367187 -138.95703125 265.453125 C-146.45607219 251.8593579 -147.00357361 233.71180832 -143.6875 218.75 C-142.45674447 214.7952913 -140.77405396 211.44351501 -138.73901367 207.84545898 C-135.41104017 201.25265623 -134.99269358 195.76451904 -135.11328125 188.47265625 C-135.10668991 187.2742662 -135.10009857 186.07587616 -135.0933075 184.84117126 C-135.07596839 181.03936852 -135.09763555 177.23922164 -135.125 173.4375 C-135.18711521 152.95137649 -135.21344425 132.58343964 -129.125 112.8125 C-128.87081299 111.96010742 -128.61662598 111.10771484 -128.35473633 110.22949219 C-115.60270102 68.71762866 -91.80925538 32.82782306 -52.94555664 12.1574707 C-36.07380204 3.48261961 -18.94445048 -0.01421722 0 0 Z M-69.8125 43.375 C-70.84375 44.15875 -71.875 44.9425 -72.9375 45.75 C-94.92958703 65.82973164 -109.0241455 96.84680866 -115.8125 125.375 C-115.97621094 126.0467627 -116.13992187 126.71852539 -116.30859375 127.41064453 C-120.61955873 146.2176746 -119.08443105 166.21432017 -118.8125 185.375 C-117.70479248 185.05265381 -116.59708496 184.73030762 -115.45581055 184.39819336 C-111.07183083 183.16698925 -108.32739334 182.85689749 -103.8125 183.375 C-100.5251507 186.78724978 -98.67825318 190.45463128 -96.796875 194.76953125 C-96.26835938 195.97158203 -95.73984375 197.17363281 -95.1953125 198.41210938 C-94.65087721 199.67050178 -94.10660842 200.92896623 -93.5625 202.1875 C-93.00329549 203.46579744 -92.44340606 204.74379549 -91.8828125 206.02148438 C-90.51928176 209.13644684 -89.16278994 212.25428052 -87.8125 215.375 C-87.4825 215.375 -87.1525 215.375 -86.8125 215.375 C-86.8031543 214.20517578 -86.79380859 213.03535156 -86.78417969 211.83007812 C-86.74409938 207.461211 -86.67829141 203.09303477 -86.60498047 198.72460938 C-86.57687503 196.83928346 -86.55560894 194.95384201 -86.54150391 193.06835938 C-86.51992911 190.347059 -86.47320651 187.62713269 -86.421875 184.90625 C-86.42064636 184.07258911 -86.41941772 183.23892822 -86.41815186 182.38000488 C-86.27723391 176.66124074 -85.10696996 172.12457868 -81.8125 167.375 C-76.70510211 163.22523922 -72.78682798 162.2743968 -66.359375 162.19921875 C-52.50915157 161.92623182 -39.31228011 160.79601854 -25.69921875 158.21484375 C-16.47701026 156.54550068 -16.47701026 156.54550068 -12.453125 158.55078125 C-10.26697175 160.98157546 -10.3952636 162.34319935 -10.5625 165.5625 C-10.59859375 166.46355469 -10.6346875 167.36460937 -10.671875 168.29296875 C-10.71828125 168.98003906 -10.7646875 169.66710937 -10.8125 170.375 C-27.78710255 174.42218533 -44.19829908 176.53879144 -61.64868164 177.03393555 C-62.69145264 177.06527588 -63.73422363 177.09661621 -64.80859375 177.12890625 C-65.74888428 177.15283447 -66.6891748 177.1767627 -67.65795898 177.20141602 C-69.79270316 177.13919055 -69.79270316 177.13919055 -70.8125 178.375 C-70.91372667 179.71919131 -70.94816065 181.06852065 -70.9543457 182.41650391 C-70.96138016 183.27474762 -70.96841461 184.13299133 -70.97566223 185.01724243 C-70.97982651 185.95256805 -70.98399078 186.88789368 -70.98828125 187.8515625 C-71.01149267 189.82162511 -71.03561053 191.79167722 -71.06054688 193.76171875 C-71.09558063 196.87555833 -71.12495247 199.98901524 -71.13842773 203.10302734 C-71.15396057 206.10301597 -71.19422117 209.10187451 -71.23828125 212.1015625 C-71.23637283 213.02474274 -71.23446442 213.94792297 -71.23249817 214.89907837 C-71.34516025 220.89160002 -72.30787642 224.46925067 -75.8125 229.375 C-80.74471092 233.0154414 -85.91036863 232.9740516 -91.8125 232.375 C-94.9375 231.375 -94.9375 231.375 -96.8125 230.375 C-97.64703104 263.55595412 -81.00563159 295.94359769 -58.6171875 319.5 C-49.85557662 328.54580392 -40.52426055 335.83256942 -29.8125 342.375 C-29.21985352 342.73867676 -28.62720703 343.10235352 -28.01660156 343.47705078 C2.24556571 361.68307979 39.69160706 365.7376797 73.6640625 357.30859375 C109.85700438 347.63037245 139.60679601 324.60142159 158.79492188 292.54272461 C170.81440917 271.71151489 175.46616975 250.1342556 177.1875 226.375 C176.259375 227.179375 175.33125 227.98375 174.375 228.8125 C170.12105453 232.49925274 166.15825017 232.71590051 160.6953125 232.66015625 C156.06991127 232.13421499 153.35255952 229.70075738 150.375 226.3125 C147.70502314 221.95622196 147.96969426 217.49242271 147.87109375 212.55078125 C147.85031265 211.68938034 147.82953156 210.82797943 147.80812073 209.94047546 C147.74275091 207.18956456 147.68379868 204.43855844 147.625 201.6875 C147.58180283 199.82225579 147.53818815 197.9570212 147.49414062 196.09179688 C147.38708237 191.51962876 147.28577946 186.9473649 147.1875 182.375 C145.56702759 181.67346802 145.56702759 181.67346802 143.91381836 180.95776367 C143.3061412 180.69468918 142.69846405 180.43161469 142.07237244 180.16056824 C139.64468138 179.14876662 137.17359728 178.26694443 134.69628906 177.38500977 C125.47870844 174.08161942 116.81422041 169.99208543 108.1875 165.375 C107.12660156 164.80910156 106.06570312 164.24320313 104.97265625 163.66015625 C89.59831215 155.07395882 75.72848183 143.47871591 65.1875 129.375 C61.64327596 129.94639995 60.23203741 131.09494636 57.875 133.75 C46.86348268 145.14967842 31.95091921 154.69676184 17.1875 160.375 C13.42699675 160.16214133 11.86416871 160.05166871 9.1875 157.375 C8.74379771 151.78435115 8.74379771 151.78435115 9.1875 149.375 C11.22003944 147.01610697 13.32132492 145.60912342 16.06640625 144.17578125 C16.81792969 143.77544678 17.56945312 143.3751123 18.34375 142.96264648 C19.1378125 142.54184814 19.931875 142.1210498 20.75 141.6875 C27.83219129 137.8384525 34.17096422 133.78253216 40.1875 128.375 C41.06019531 127.59769531 41.93289062 126.82039063 42.83203125 126.01953125 C44.51755877 124.50675179 46.19569073 122.98565447 47.86328125 121.453125 C54.13523566 115.84525988 57.99187769 113.9624492 66.4140625 114.1171875 C71.90916866 114.62800019 74.75030161 116.70928156 78.2265625 120.73828125 C79.74399311 122.63372903 81.25403794 124.53510617 82.7578125 126.44140625 C98.61855151 145.59159113 123.14552495 157.3788119 146.1875 165.375 C157.29835619 169.33707971 157.29835619 169.33707971 160.79223633 174.95556641 C162.52598096 179.20453007 162.66295531 182.73202073 162.69921875 187.2734375 C162.72614555 188.52587753 162.72614555 188.52587753 162.75361633 189.80361938 C162.80749922 192.45236261 162.84154361 195.10092794 162.875 197.75 C162.90819259 199.55341005 162.94268404 201.3567967 162.97851562 203.16015625 C163.06321275 207.56497534 163.13012834 211.9697437 163.1875 216.375 C165.63984652 213.92265348 166.5645582 211.58794493 167.97265625 208.4140625 C168.50310547 207.22039062 169.03355469 206.02671875 169.58007812 204.796875 C169.85408447 204.17361328 170.12809082 203.55035156 170.41040039 202.90820312 C171.24488139 201.01163333 172.08766377 199.11892263 172.93164062 197.2265625 C176.05800014 190.47350516 176.05800014 190.47350516 178.1875 183.375 C179.51763759 183.14715236 180.85200696 182.94400744 182.1875 182.75 C182.93 182.63398438 183.6725 182.51796875 184.4375 182.3984375 C188.2508431 182.36593742 191.49796853 183.40979221 195.1875 184.375 C195.26287316 178.72317265 195.31666571 173.07165148 195.35229492 167.41943359 C195.36718141 165.50531912 195.38749725 163.59123748 195.41381836 161.67724609 C195.63340713 145.27267345 194.19621244 129.81495452 189.5625 114 C189.31089111 113.13552246 189.05928223 112.27104492 188.80004883 111.38037109 C177.98508936 75.8459645 155.141671 44.1342745 122.1875 26.375 C98.13607363 14.84312853 72.95082129 13.84912013 47.00415039 19.07861328 C39.15389524 20.58932008 33.00737044 20.19229384 25.1875 18.375 C-10.01543855 10.65185095 -42.80288402 20.24911965 -69.8125 43.375 Z M-117.0625 204.125 C-125.44470553 212.73469754 -129.21253852 224.38230497 -129.125 236.1875 C-129.11936035 236.98285156 -129.1137207 237.77820313 -129.10791016 238.59765625 C-128.87656919 249.81196667 -125.38614663 259.40180881 -117.6328125 267.7109375 C-113.66546787 271.41112087 -110.26446625 274.25664795 -104.8125 275.375 C-105.81110506 270.86023637 -106.8161337 266.34721308 -107.84765625 261.83984375 C-108.19010417 260.33072917 -108.53255208 258.82161458 -108.875 257.3125 C-109.04837891 256.56162109 -109.22175781 255.81074219 -109.40039062 255.03710938 C-109.56861328 254.29138672 -109.73683594 253.54566406 -109.91015625 252.77734375 C-110.13457397 251.79495728 -110.13457397 251.79495728 -110.36352539 250.79272461 C-111.5935986 244.16879042 -111.95286637 237.78011434 -111.91015625 231.0625 C-111.9087413 230.20817383 -111.90732635 229.35384766 -111.90586853 228.47363281 C-111.90031962 225.77405127 -111.88777697 223.07455601 -111.875 220.375 C-111.86997839 218.53255329 -111.86541664 216.69010527 -111.86132812 214.84765625 C-111.85036699 210.35673814 -111.83313825 205.86588364 -111.8125 201.375 C-114.51708089 201.375 -115.11380447 202.28163937 -117.0625 204.125 Z M191.1875 201.375 C191.2596875 202.47457031 191.331875 203.57414063 191.40625 204.70703125 C192.8143368 226.74871684 191.26890444 246.88300688 185.70654297 268.31591797 C185.11699522 270.65469772 184.62109125 273.00242767 184.1875 275.375 C193.2230199 272.68019582 197.83311818 268.11424703 202.4375 259.9375 C203.37650529 258.09454561 204.29518038 256.24100576 205.1875 254.375 C205.51878906 253.694375 205.85007812 253.01375 206.19140625 252.3125 C211.01398234 241.12971486 209.45049197 228.4808021 205.625 217.25 C203.10295051 211.35566464 198.89414047 206.66558386 194.1875 202.375 C193.1975 202.045 192.2075 201.715 191.1875 201.375 Z M226.4375 252.5625 C212.97837059 266.64222327 206.56585946 284.09156606 206.1875 303.375 C206.97987097 323.60026905 215.6838824 341.13392216 230.24609375 354.90625 C247.411613 369.31343216 266.40849572 372.77529688 288.1875 371.375 C301.86303554 369.54822885 314.02966161 362.37853857 324.1875 353.375 C324.80109375 352.85550781 325.4146875 352.33601563 326.046875 351.80078125 C337.0315965 341.79863805 345.29548983 325.75610116 346.36450195 310.91821289 C346.87137717 289.65570638 343.75190372 271.89133411 329.1875 255.375 C328.53136719 254.62476563 327.87523437 253.87453125 327.19921875 253.1015625 C314.35372621 239.34021217 296.9007503 232.39157644 278.31787109 231.42236328 C258.5015119 230.98179788 240.71982768 239.08343081 226.4375 252.5625 Z M184.9609375 289.99609375 C181.77738935 289.75240195 180.09605812 289.97721811 177.1875 291.375 C173.4742461 295.74898022 171.05816463 301.15213674 168.39453125 306.19824219 C161.38727467 318.83511509 150.42326441 329.35701781 140.1875 339.375 C143.64777188 342.18730591 147.18076993 344.87980596 150.75952148 347.53759766 C171.45475667 362.90951334 171.45475667 362.90951334 173.1875 366.375 C173.64415236 372.65396996 173.64415236 372.65396996 172 375.25 C169.5351809 376.77988771 168.12438192 377.30825268 165.1875 377.375 C159.44110629 374.8961635 155.38535162 370.92771103 150.83203125 366.703125 C146.87274129 363.21754625 142.58120674 360.28232509 138.1875 357.375 C137.1975 357.87 137.1975 357.87 136.1875 358.375 C136.20844727 359.21869141 136.22939453 360.06238281 136.25097656 360.93164062 C137.46873346 417.75001946 137.46873346 417.75001946 124.1875 433.375 C116.72029153 440.51033254 110.67760641 442.03138325 100.54296875 441.87890625 C92.4745506 441.21922426 84.74475746 438.10830302 77.1875 435.375 C76.47633169 437.80762293 75.79402399 440.24324404 75.125 442.6875 C74.82625977 443.69393555 74.82625977 443.69393555 74.52148438 444.72070312 C70.23756373 460.72903816 78.50557333 483.96536664 81.1875 497.375 C114.8475 497.375 148.5075 497.375 183.1875 497.375 C182.1975 494.075 181.2075 490.775 180.1875 487.375 C177.24736934 471.24197537 185.62890142 455.01477838 191.6015625 440.4296875 C191.97410156 439.51920654 192.34664063 438.60872559 192.73046875 437.6706543 C193.43372661 435.97550454 194.15172485 434.28636896 194.88671875 432.60473633 C197.27873869 427.10657605 197.27873869 427.10657605 196.1875 421.375 C194.82964723 418.86970552 193.44294698 416.47412073 191.9375 414.0625 C191.53289551 413.39605469 191.12829102 412.72960937 190.71142578 412.04296875 C188.59624559 408.57329392 186.38292476 405.21142995 184.0625 401.875 C182.1875 398.375 182.1875 398.375 182.1875 394.5 C183.1875 391.375 183.1875 391.375 186.1875 389.375 C189.5 388.8125 189.5 388.8125 193.1875 389.375 C198.37684685 394.00028741 201.58922095 400.15076249 205.02880859 406.13110352 C207.63156375 410.63243513 207.63156375 410.63243513 211.1875 414.375 C213.55303683 408.38723489 215.88227948 402.3862411 218.1875 396.375 C218.56132812 395.40240234 218.93515625 394.42980469 219.3203125 393.42773438 C220.45552641 390.45648571 221.57366155 387.47931966 222.6875 384.5 C223.04972656 383.55560059 223.41195312 382.61120117 223.78515625 381.63818359 C224.27822266 380.3052124 224.27822266 380.3052124 224.78125 378.9453125 C225.22500977 377.76606201 225.22500977 377.76606201 225.67773438 376.56298828 C226.2596844 374.06517405 226.10805225 372.75280443 225.1875 370.375 C223.15949986 368.24118728 223.15949986 368.24118728 220.625 366.1875 C203.37593919 351.04556878 193.1304329 331.24690864 191.625 308.1875 C191.25179429 302.23953405 191.0613307 296.33299491 191.1875 290.375 C187.1875 290.375 187.1875 290.375 184.9609375 289.99609375 Z M-40.8125 354.375 C-43.43008308 369.37822007 -42.55121493 385.36479674 -40.0625 400.3125 C-39.90563721 401.26310303 -39.74877441 402.21370605 -39.5871582 403.19311523 C-37.45326953 415.16081865 -37.45326953 415.16081865 -31.0625 425.0625 C-23.45745933 428.13376643 -16.8437873 425.75566801 -9.4765625 423.1640625 C-8.51599945 422.83586517 -7.5554364 422.50766785 -6.56576538 422.16952515 C-4.54852157 421.47752984 -2.53329144 420.77963922 -0.52001953 420.07617188 C2.56923029 418.99765032 5.66471715 417.93884249 8.76171875 416.8828125 C10.72435199 416.20687109 12.6866057 415.52982646 14.6484375 414.8515625 C15.57546478 414.53377838 16.50249207 414.21599426 17.45761108 413.88858032 C18.31255157 413.5884201 19.16749207 413.28825989 20.04833984 412.97900391 C20.80142426 412.71697174 21.55450867 412.45493958 22.33041382 412.18496704 C24.38082428 411.42531259 24.38082428 411.42531259 26.1875 409.375 C19.88993456 401.16204599 13.55672581 392.97794371 7.18701172 384.82080078 C6.6251416 384.10005371 6.06327148 383.37930664 5.484375 382.63671875 C4.92838623 381.931521 4.37239746 381.22632324 3.79956055 380.49975586 C2.73223967 379.09298718 1.71108174 377.64987581 0.74145508 376.17407227 C-2.97027885 370.63349702 -6.30233355 368.79296688 -12.625 366.9375 C-21.17373557 364.13566574 -28.81124347 360.45632668 -36.6640625 356.09765625 C-39.36056181 354.29500073 -39.36056181 354.29500073 -40.8125 354.375 Z M114.375 357.375 C107.89955971 361.21345376 101.15782865 363.94817567 94.1315918 366.62109375 C86.10684725 369.68976984 81.43585924 372.80849876 76.125 379.5625 C75.56498291 380.26358887 75.00496582 380.96467773 74.42797852 381.68701172 C67.02637824 391.00831447 59.75894427 400.44764634 53.1875 410.375 C59.56679544 412.67359967 65.95377248 414.9497835 72.34643555 417.2109375 C74.51784172 417.98190069 76.68747418 418.75787937 78.85522461 419.5390625 C81.98092166 420.66445698 85.11266429 421.7713463 88.24609375 422.875 C89.20583603 423.22498047 90.16557831 423.57496094 91.15440369 423.93554688 C96.81919395 425.90736415 102.16202739 427.33896031 108.1875 426.375 C111.84361525 424.34382486 113.51658958 423.10098222 115.02319336 419.22509766 C120.73979686 399.09086901 124.9741132 375.17159374 120.1875 354.375 C118.15548497 354.375 116.01057871 356.35018984 114.375 357.375 Z M-64.8125 361.8125 C-65.39845947 362.26915039 -65.98441895 362.72580078 -66.58813477 363.19628906 C-71.88322255 367.36305753 -76.92229215 371.7376094 -81.8125 376.375 C-82.32893066 376.85356445 -82.84536133 377.33212891 -83.37744141 377.82519531 C-109.10218402 401.7708997 -132.85514541 439.41818984 -134.4375 475.5625 C-134.13500925 482.17528392 -131.90655542 486.28885776 -127.28515625 490.8984375 C-119.57636307 497.68531394 -111.7539963 497.52323475 -101.94189453 497.48852539 C-100.85837204 497.48867142 -99.77484955 497.48881744 -98.65849304 497.4889679 C-95.08741229 497.48827284 -91.51638411 497.48049947 -87.9453125 497.47265625 C-85.46524077 497.47079063 -82.98516867 497.4693674 -80.50509644 497.46836853 C-73.98509703 497.46455474 -67.46511998 497.45473414 -60.94512939 497.44366455 C-54.28894472 497.43288405 -47.63275353 497.42886567 -40.9765625 497.42382812 C-27.92186547 497.41311087 -14.86718393 497.39624096 -1.8125 497.375 C-1.67052689 496.69248169 -1.52855377 496.00996338 -1.38227844 495.3067627 C-0.73032916 492.17321339 -0.07805741 489.03973128 0.57421875 485.90625 C0.90915344 484.2960498 0.90915344 484.2960498 1.25085449 482.65332031 C2.22922014 477.95429556 3.20962942 473.25591517 4.21459961 468.5625 C6.88773171 456.01199108 5.74803166 447.5825371 2.1875 435.375 C0.98996094 435.808125 -0.20757812 436.24125 -1.44140625 436.6875 C-13.26541785 440.80131392 -25.24137353 444.72929753 -37.375 439.3125 C-44.77887782 434.93412707 -48.28799009 429.52096214 -50.8125 421.375 C-51.80527522 417.41829735 -52.63231311 413.43609783 -53.4375 409.4375 C-53.6540625 408.40431641 -53.870625 407.37113281 -54.09375 406.30664062 C-56.4412095 394.86639817 -56.94543305 383.9552166 -56.875 372.3125 C-56.86997414 370.86002759 -56.86541316 369.40755349 -56.86132812 367.95507812 C-56.85041042 364.42834985 -56.83320586 360.90168598 -56.8125 357.375 C-60.11583476 357.375 -62.30367534 359.84667534 -64.8125 361.8125 Z M21.1875 376.375 C23.62249688 380.02749533 25.95634425 383.46852321 28.640625 386.8984375 C29.259375 387.69121094 29.878125 388.48398437 30.515625 389.30078125 C31.14984375 390.10902344 31.7840625 390.91726563 32.4375 391.75 C33.41203125 392.99716797 33.41203125 392.99716797 34.40625 394.26953125 C35.99811139 396.30617744 37.59190136 398.34128134 39.1875 400.375 C43.46494295 396.27444379 47.20860131 391.85037164 50.9375 387.25 C51.52660156 386.53457031 52.11570313 385.81914062 52.72265625 385.08203125 C53.28339844 384.39238281 53.84414062 383.70273437 54.421875 382.9921875 C54.92944336 382.36940918 55.43701172 381.74663086 55.95996094 381.10498047 C57.38069574 379.28056627 57.38069574 379.28056627 58.1875 376.375 C45.9775 376.375 33.7675 376.375 21.1875 376.375 Z M240.1875 380.375 C238.18759541 385.87207818 236.19393296 391.37136409 234.20605469 396.87280273 C233.52873653 398.74451918 232.84970824 400.61561769 232.16894531 402.48608398 C231.19147088 405.1727138 230.22014161 407.86149627 229.25 410.55078125 C228.94376709 411.38837479 228.63753418 412.22596832 228.32202148 413.08894348 C228.04173096 413.86952621 227.76144043 414.65010895 227.47265625 415.4543457 C227.22394775 416.14051468 226.97523926 416.82668365 226.71899414 417.53364563 C226.04883918 419.53596757 226.04883918 419.53596757 226.1875 422.375 C227.9777061 423.04557887 229.76971489 423.7113469 231.5625 424.375 C232.56023437 424.74625 233.55796875 425.1175 234.5859375 425.5 C237.04598061 426.48126277 237.04598061 426.48126277 239.1875 426.375 C244.1375 412.845 249.0875 399.315 254.1875 385.375 C251.00678996 383.78464498 248.31092347 382.72651732 244.9375 381.75 C244.04546875 381.48960937 243.1534375 381.22921875 242.234375 380.9609375 C241.55890625 380.76757812 240.8834375 380.57421875 240.1875 380.375 Z M28.0625 425.6875 C26.66451172 426.1505957 26.66451172 426.1505957 25.23828125 426.62304688 C24.35269531 426.92919922 23.46710938 427.23535156 22.5546875 427.55078125 C21.33434814 427.96710815 21.33434814 427.96710815 20.08935547 428.3918457 C17.83214927 429.27851442 17.83214927 429.27851442 17.1875 432.375 C18.5075 436.995 19.8275 441.615 21.1875 446.375 C33.3975 446.375 45.6075 446.375 58.1875 446.375 C60.85461403 438.38310836 60.85461403 438.38310836 62.1875 430.375 C45.41718742 422.87960761 45.41718742 422.87960761 28.0625 425.6875 Z M210.1875 434.375 C208.21140271 439.7316338 206.2359125 445.08849095 204.26098633 450.44555664 C203.58895308 452.26820947 202.91675353 454.09080099 202.24438477 455.91333008 C201.27837164 458.53190292 200.3129554 461.15069514 199.34765625 463.76953125 C199.04658463 464.58525101 198.745513 465.40097076 198.43531799 466.2414093 C198.155103 467.00197128 197.874888 467.76253326 197.58618164 468.54614258 C197.33969376 469.21454666 197.09320587 469.88295074 196.83924866 470.5716095 C194.71834692 476.44015102 194.24722457 481.65864875 196.3125 487.625 C198.92443874 491.45584349 201.99073629 494.27661815 206.1875 496.375 C211.44325165 496.8988576 215.83276095 497.04005372 220.625 494.6875 C225.65639734 490.1469707 228.14142356 485.67668852 230.4375 479.4375 C230.72689453 478.66913818 231.01628906 477.90077637 231.31445312 477.10913086 C231.94130258 475.43769867 232.56351381 473.76452134 233.18164062 472.08984375 C234.25634897 469.18917464 235.35431064 466.29786673 236.453125 463.40625 C237.19900526 461.41707452 237.94381503 459.42749727 238.6875 457.4375 C239.23132324 456.00772827 239.23132324 456.00772827 239.78613281 454.54907227 C240.11452148 453.65760498 240.44291016 452.7661377 240.78125 451.84765625 C241.07708984 451.05625244 241.37292969 450.26484863 241.67773438 449.44946289 C242.42585785 447.20093979 242.42585785 447.20093979 241.1875 444.375 C239.51708474 443.36232841 239.51708474 443.36232841 237.43359375 442.65625 C236.66080078 442.36363281 235.88800781 442.07101562 235.09179688 441.76953125 C234.27775391 441.47433594 233.46371094 441.17914063 232.625 440.875 C231.83802734 440.57980469 231.05105469 440.28460938 230.24023438 439.98046875 C228.66264218 439.39000968 227.08237512 438.80664797 225.49951172 438.23046875 C223.98784148 437.6711348 222.48361751 437.09113355 220.98876953 436.48828125 C217.18793102 434.96687443 214.2585612 434.2312175 210.1875 434.375 Z M21.1875 461.375 C18.8775 473.255 16.5675 485.135 14.1875 497.375 C31.0175 497.375 47.8475 497.375 65.1875 497.375 C64.011875 490.6925 64.011875 490.6925 62.8125 483.875 C62.44825928 481.79155273 62.44825928 481.79155273 62.07666016 479.66601562 C61.87862793 478.54904297 61.6805957 477.43207031 61.4765625 476.28125 C61.27756348 475.15009766 61.07856445 474.01894531 60.87353516 472.85351562 C60.11319596 468.99824413 59.14055188 465.18720751 58.1875 461.375 C45.9775 461.375 33.7675 461.375 21.1875 461.375 Z " fill="#000000" transform="translate(149.8125,-0.375)"/>
<path d="M0 0 C4.17684446 0.1949694 8.17422121 0.12464585 12.3125 -0.5 C26.09551732 -2.3688837 38.67045747 -0.36886068 50 8 C54.22999495 11.49359907 57.36089697 15.41267617 60.4375 19.9375 C66.08552629 28.18560888 72.8388235 33.88881516 81.07641602 39.41210938 C85.36158278 42.3313979 88.66223204 45.32446408 91 50 C91.76038689 56.81855126 91.2542913 61.54578038 87 67 C78.04300262 74.20454137 63.90169124 73.80118542 52.91796875 72.6875 C31.83939506 69.8870252 18.67555536 59.78075647 4 45 C3.35675781 45.76183594 2.71351563 46.52367187 2.05078125 47.30859375 C-11.96785251 63.49872072 -27.87520694 71.50934449 -49.35546875 73.18359375 C-58.62876077 73.47936479 -70.70847973 73.15728379 -78 67 C-81.77767162 61.87966196 -82.7056881 57.2503803 -82 51 C-79.30304258 43.06777229 -72.20252079 38.94784885 -65.40625 34.6875 C-59.26321452 30.3793972 -54.78229121 25.74522113 -50.5625 19.5625 C-42.85029036 8.71712275 -34.79313032 1.94778673 -21.45703125 -0.69140625 C-14.21983744 -1.60037018 -7.18090521 -1.08391022 0 0 Z M-33.67578125 23.94140625 C-36.07013135 26.9940699 -38.36560382 30.10754436 -40.61328125 33.26953125 C-47.11043888 42.12365299 -55.57662078 48.48821215 -65 54 C-64.67 54.66 -64.34 55.32 -64 56 C-61.28870269 56.48416023 -58.73609622 56.80389754 -56 57 C-55.32710937 57.05414063 -54.65421875 57.10828125 -53.9609375 57.1640625 C-39.39713818 57.76406921 -26.63861128 52.65061421 -16 43 C-14.29241374 41.10120656 -12.60550332 39.18365775 -10.9375 37.25 C-7.04110221 32.87256544 -3.97387368 29.67409469 2 29 C7.53593522 28.90680244 11.41978816 29.78108951 16 33 C17.61355205 34.70304317 19.17332779 36.45802099 20.6875 38.25 C30.50276728 49.2739723 42.17190509 55.93115563 57 57 C59.90344042 57.0156538 62.78883436 56.91127039 65.6875 56.75 C66.74916382 56.69259644 66.74916382 56.69259644 67.83227539 56.6340332 C69.56288926 56.50400914 71.28434924 56.26167367 73 56 C73.33 55.34 73.66 54.68 74 54 C72.80117188 53.23429687 72.80117188 53.23429687 71.578125 52.453125 C60.23144998 44.94194576 51.20828926 36.59850102 43.63671875 25.1953125 C39.68566208 19.89580451 34.56420767 16.50057772 28.07421875 15.23828125 C23.35343964 14.69596952 18.81694649 14.68067289 14.1328125 15.50390625 C10.87008035 16.02057331 7.80149004 16.13286069 4.5 16.125 C3.4171875 16.12757813 2.334375 16.13015625 1.21875 16.1328125 C-1.93885126 16.00252313 -4.89210547 15.55119548 -8 15 C-17.5055393 14.13736816 -27.225102 16.46824171 -33.67578125 23.94140625 Z " fill="#000000" transform="translate(185,246)"/>
<path d="M0 0 C10.48530444 10.84825728 15.14751385 24.51273967 15.09375 39.3515625 C15.10986328 40.23328125 15.12597656 41.115 15.14257812 42.0234375 C15.14791439 49.30209791 14.1369885 56.44295475 10.03125 62.6015625 C6.75387137 64.604405 4.54409537 64.51411184 0.78125 63.9765625 C-1.65625 62.4765625 -1.65625 62.4765625 -3.21875 59.9765625 C-3.69372512 56.6653074 -3.64445177 53.4598671 -2.71875 50.234375 C-0.57621556 40.5594929 -1.32250584 29.60254752 -6.21875 20.9765625 C-6.61964844 20.21085937 -7.02054687 19.44515625 -7.43359375 18.65625 C-12.3619401 10.22806349 -20.61811588 4.00852738 -30.05078125 1.4375 C-30.76621094 1.28539062 -31.48164063 1.13328125 -32.21875 0.9765625 C-32.92386719 0.82445312 -33.62898438 0.67234375 -34.35546875 0.515625 C-45.60917698 -1.30274796 -56.32241445 2.00732247 -65.44140625 8.578125 C-73.96224252 15.55406198 -78.33553975 24.49109147 -80.03125 35.2890625 C-80.95354088 46.55278513 -77.40720621 56.91857782 -70.46875 65.7265625 C-63.63929142 73.1324204 -55.24943548 77.49482135 -45.2578125 78.29296875 C-37.28193975 78.60166026 -30.9472528 77.99413513 -23.5234375 74.8125 C-19.94752999 73.51547592 -17.82344182 73.85009631 -14.21875 74.9765625 C-12.28125 76.0390625 -12.28125 76.0390625 -11.21875 77.9765625 C-10.43883595 84.99578892 -10.43883595 84.99578892 -12.90234375 88.09375 C-15.45350493 90.16737511 -17.61170726 91.11842311 -20.71875 92.1640625 C-21.6571875 92.48761719 -22.595625 92.81117188 -23.5625 93.14453125 C-37.6077243 97.54399121 -53.7408128 96.04603506 -66.875 89.69140625 C-79.72992508 82.56961906 -89.35872841 71.73116683 -94.43359375 57.890625 C-98.65803983 42.21183508 -97.97028048 26.47625276 -90.21875 11.9765625 C-81.97717296 -1.42949623 -70.32936041 -11.11748479 -55.03125 -15.3984375 C-53.1440625 -15.7078125 -53.1440625 -15.7078125 -51.21875 -16.0234375 C-50.42726563 -16.15492188 -49.63578125 -16.28640625 -48.8203125 -16.421875 C-30.06429439 -18.89700935 -13.74225227 -12.53254697 0 0 Z " fill="#000000" transform="translate(467.21875,262.0234375)"/>
<path d="M0 0 C3.67081498 0.7734107 7.26677111 1.72646229 10.875 2.75 C12.25945312 3.10964844 12.25945312 3.10964844 13.671875 3.4765625 C18.87401841 4.93919412 22.21344457 6.04179942 25 11 C25.5923739 14.62829011 25.4674199 16.25991849 23.5 19.375 C19.86748926 21.73613198 17.28156703 21.2854378 13 21 C13.05800781 21.73605469 13.11601562 22.47210938 13.17578125 23.23046875 C13.5435454 31.1846819 13.5435454 31.1846819 10.875 35.1875 C7.49811094 37.31640832 5.91736656 37.6667858 2 37 C-1.1359157 35.22015595 -1.84102736 34.47691793 -3 31 C-3.07029121 28.42734182 -3.09370832 25.88358569 -3.0625 23.3125 C-3.05798828 22.61060547 -3.05347656 21.90871094 -3.04882812 21.18554688 C-3.03706927 19.45699462 -3.01913454 17.72848635 -3 16 C-4.09441406 15.88011719 -5.18882813 15.76023438 -6.31640625 15.63671875 C-10.84611782 14.85374634 -12.30302606 13.67769174 -15 10 C-15.83700493 5.98237632 -15.33351744 4.52251066 -13.125 1.0625 C-8.60380767 -1.92148694 -5.18810697 -0.86196963 0 0 Z " fill="#000000" transform="translate(122,190)"/>
<path d="M0 0 C2.57551229 3.03001446 2.87340961 4.70889297 2.60546875 8.59765625 C2.125 10.5 2.125 10.5 0.0625 12.9375 C-3.29722603 14.72458831 -6.12371792 15.04489746 -9.875 15.5 C-9.81699219 16.59699219 -9.75898438 17.69398438 -9.69921875 18.82421875 C-9.65230312 20.27860314 -9.60680489 21.73303374 -9.5625 23.1875 C-9.52060547 23.90873047 -9.47871094 24.62996094 -9.43554688 25.37304688 C-9.33993645 29.56078338 -9.52454541 31.05209907 -12.20703125 34.48046875 C-14.875 36.5 -14.875 36.5 -17.875 37.125 C-22.13288015 36.23794164 -23.45235169 35.13397247 -25.875 31.5 C-26.28611401 27.7947699 -26.16747535 24.21118727 -25.875 20.5 C-27.1125 20.603125 -28.35 20.70625 -29.625 20.8125 C-33.01598347 20.80045388 -33.66325125 20.67043192 -36.4375 18.4375 C-38.31125505 14.60852228 -38.00462701 12.56665724 -36.875 8.5 C-34.53511748 5.41614516 -31.98314781 4.69800253 -28.32421875 3.67578125 C-26.68743164 3.21655273 -26.68743164 3.21655273 -25.01757812 2.74804688 C-23.87740234 2.43931641 -22.73722656 2.13058594 -21.5625 1.8125 C-20.43392578 1.49216797 -19.30535156 1.17183594 -18.14257812 0.84179688 C-5.22242482 -2.72474338 -5.22242482 -2.72474338 0 0 Z " fill="#000000" transform="translate(269.875,190.5)"/>
</svg>
